<?xml version="1.0" encoding="utf-8"?>
<!-- Generator: Adobe Illustrator 28.3.0, SVG Export Plug-In . SVG Version: 6.00 Build 0)  -->
<svg version="1.1" id="Camada_1" xmlns="http://www.w3.org/2000/svg" xmlns:xlink="http://www.w3.org/1999/xlink" x="0px" y="0px"
	 viewBox="0 0 1080 1080" style="enable-background:new 0 0 1080 1080;" xml:space="preserve">
<style type="text/css">
	.st0{fill:#FFFFFF;}
	.st1{fill:#1A1A1A;}
</style>
<path class="st1" d="M223.5,849.2c1.8,0.3,3.5,0.5,5.1,0.5c20.4,0,29.3-24.1,33.2-34.9c5.3-14.4,11.1-34.9,17.9-58.6
	c10.7-37.6,24.5-86.4,43.5-135.5c52.6,55.5,130.5,90.3,216.1,93.4l0.8,0l0.8,0c85.6-2.9,163.6-37.7,216.2-93.1
	c18.9,49,32.7,97.6,43.4,135.1c6.7,23.7,12.5,44.2,17.9,58.6c4.3,11.6,14.2,38.8,38.3,34.4c23-4.2,26.5-33.2,28.4-48.8
	c2.3-19.1,3.2-45.7,2.6-76.7c-1.5-75.1-12.5-192-38.6-295.2c-30.8-121.7-73.7-187.6-127.6-196c-35.5-8.9-62.3,10.5-88.2,29.4
	c-25.7,18.7-52.2,38-93,38c0,0-0.1,0-0.1,0c-40.9,0-67.5-19.3-93.2-38c-25.9-18.8-52.7-38.3-88.2-29.3
	c-53.9,8.4-96.8,74.3-127.6,196c-26.1,103.2-37,220.2-38.5,295.2c-0.6,31.1,0.3,57.6,2.6,76.7C197.1,816,200.6,845,223.5,849.2z
	 M319.5,328.3c13.3-27.9,31.1-47.5,47.9-52.8c14-1.3,27.3,7.3,48.9,22.4c29.3,20.4,65.8,45.7,123.8,45.7c0,0,0,0,0,0
	c0,0,0.1,0,0.1,0c58,0,94.4-25.4,123.7-45.7c21.7-15.1,34.9-23.7,49-22.4c16.9,5.3,34.8,25,48.2,53.2c24.2,51,34.8,133.5,4.1,203.1
	c-40-77-96.3-144.3-178.1-163.6c-16.7-3.9-32.5-5.4-46.7-5.4c-18.7,0-34.8,2.6-47,5.4c-81.7,19.3-138,86.4-177.9,163.2
	C284.6,461.7,295.3,379.2,319.5,328.3z M540.1,670.4c-81.2-3.2-154-38.9-197.9-94.5c35.9-77.6,86.8-147.5,161.1-165
	c16.8-4,43.2-7.2,73.6,0c74.3,17.5,125.3,87.7,161.2,165.4C694.2,631.8,621.3,667.4,540.1,670.4z M844,749.1
	c-0.5-1.6-0.9-3.2-1.4-4.8c-12.7-44.9-29.6-104.4-54.4-163c6.4-10.1,12-20.5,16.9-31.4c6.8-15.4,11.9-31,15.5-46.6
	c6.2,33.2,11.5,69,15.5,106.5C842.2,665.4,844.3,713.5,844,749.1z M244.1,609.7c4.1-37.8,9.4-73.8,15.7-107.3
	c3.6,15.7,8.7,31.3,15.5,46.8c4.8,11,10.5,21.6,16.9,31.7c-24.9,58.8-41.8,118.5-54.6,163.5c-0.5,1.6-0.9,3.2-1.4,4.8
	C236,713.5,238.1,665.4,244.1,609.7z"/>
</svg>
