<?xml version="1.0" encoding="UTF-8"?>
<svg id="Camada_1" data-name="Camada 1" xmlns="http://www.w3.org/2000/svg" viewBox="0 0 1080 592.09">
  <defs>
    <style>
      .cls-1 {
        fill: #1a1a1a;
        stroke-width: 0px;
      }
    </style>
  </defs>
  <path class="cls-1" d="M458.75,279.75c.46.08.89.12,1.31.12,5.23,0,7.51-6.19,8.53-8.95,1.36-3.71,2.86-8.96,4.58-15.04,2.74-9.66,6.29-22.17,11.17-34.78,13.49,14.23,33.49,23.18,55.45,23.98h.2s.2,0,.2,0c21.96-.75,41.99-9.67,55.5-23.89,4.86,12.57,8.4,25.05,11.14,34.68,1.73,6.08,3.22,11.34,4.58,15.04,1.1,2.98,3.66,9.96,9.84,8.82,5.89-1.08,6.79-8.52,7.28-12.52.59-4.91.82-11.72.66-19.69-.39-19.27-3.2-49.29-9.89-75.77-7.89-31.23-18.91-48.14-32.74-50.3-9.12-2.28-16,2.7-22.64,7.53-6.59,4.79-13.4,9.75-23.87,9.76-.01,0-.02,0-.04,0-10.49,0-17.32-4.96-23.91-9.76-6.65-4.84-13.53-9.82-22.64-7.53-13.83,2.16-24.84,19.08-32.74,50.31-6.7,26.48-9.5,56.5-9.89,75.77-.16,7.97.07,14.78.66,19.69.48,4,1.38,11.44,7.28,12.52ZM483.38,146.07c3.41-7.17,7.98-12.2,12.28-13.56,3.59-.34,7,1.87,12.56,5.75,7.52,5.23,16.88,11.74,31.78,11.74h0s.02,0,.03,0c14.88,0,24.23-6.51,31.75-11.74,5.57-3.87,8.97-6.08,12.56-5.75,4.33,1.37,8.93,6.43,12.36,13.65,6.21,13.08,8.94,34.26,1.05,52.13-10.26-19.75-24.71-37.03-45.72-41.99-4.29-1.01-8.34-1.39-12-1.39-4.81,0-8.94.66-12.06,1.39-20.97,4.95-35.41,22.18-45.66,41.89-7.88-17.89-5.14-39.07,1.07-52.12ZM540.01,233.85c-20.83-.81-39.51-9.98-50.79-24.25,9.23-19.91,22.29-37.86,41.34-42.36,4.31-1.02,11.08-1.84,18.9,0,19.08,4.5,32.15,22.5,41.38,42.45-11.29,14.25-29.99,23.39-50.82,24.16ZM617.99,254.06c-.12-.42-.24-.83-.35-1.24-3.27-11.51-7.61-26.79-13.97-41.84,1.63-2.58,3.08-5.27,4.33-8.07,1.75-3.94,3.05-7.95,3.98-11.96,1.6,8.53,2.94,17.71,3.98,27.33,1.55,14.29,2.09,26.64,2.03,35.78ZM464.03,218.27c1.05-9.7,2.41-18.95,4.02-27.54.93,4.02,2.23,8.04,3.97,12,1.24,2.82,2.7,5.53,4.34,8.13-6.38,15.09-10.74,30.41-14.01,41.95-.12.41-.23.83-.35,1.24-.07-9.15.48-21.49,2.03-35.78Z"/>
  <path class="cls-1" d="M233.86,446.58c-7.12,0-12.46,5.46-12.46,12.31s5.35,12.31,12.46,12.31,12.43-5.46,12.43-12.31-5.35-12.31-12.43-12.31ZM233.86,468.52c-5.35,0-9.4-4.31-9.4-9.62s4.06-9.62,9.4-9.62,9.36,4.31,9.36,9.62-4.06,9.62-9.36,9.62Z"/>
  <path class="cls-1" d="M295.97,446.95h-9.07v23.89h9.07c7.67,0,12.5-5.42,12.5-11.95s-4.83-11.95-12.5-11.95ZM295.79,468.26h-5.94v-18.73h5.94c5.75,0,9.62,3.98,9.62,9.36s-3.87,9.36-9.62,9.36Z"/>
  <path class="cls-1" d="M361.56,446.58c-7.12,0-12.46,5.46-12.46,12.31s5.35,12.31,12.46,12.31,12.42-5.46,12.42-12.31-5.35-12.31-12.42-12.31ZM361.56,468.52c-5.35,0-9.4-4.31-9.4-9.62s4.06-9.62,9.4-9.62,9.36,4.31,9.36,9.62-4.06,9.62-9.36,9.62Z"/>
  <path class="cls-1" d="M432.01,466.34s-1.33-2.25-2.54-3.87l-11.91-15.52h-2.95v23.89h2.95v-19.28s1.25,2.25,2.69,4.13l11.69,15.15h3.02v-23.89h-2.95v19.39Z"/>
  <polygon class="cls-1" points="475.58 449.53 484.46 449.53 484.46 470.84 487.41 470.84 487.41 449.53 496.26 449.53 496.26 446.95 475.58 446.95 475.58 449.53"/>
  <path class="cls-1" d="M549.35,446.58c-7.12,0-12.46,5.46-12.46,12.31s5.35,12.31,12.46,12.31,12.43-5.46,12.43-12.31-5.35-12.31-12.43-12.31ZM549.35,468.52c-5.35,0-9.4-4.31-9.4-9.62s4.06-9.62,9.4-9.62,9.36,4.31,9.36,9.62-4.06,9.62-9.36,9.62Z"/>
  <polygon class="cls-1" points="605.34 446.95 602.39 446.95 602.39 470.84 620.42 470.84 620.42 468.26 605.34 468.26 605.34 446.95"/>
  <path class="cls-1" d="M673.51,446.58c-7.12,0-12.46,5.46-12.46,12.31s5.35,12.31,12.46,12.31,12.43-5.46,12.43-12.31-5.35-12.31-12.43-12.31ZM673.51,468.52c-5.35,0-9.4-4.31-9.4-9.62s4.06-9.62,9.4-9.62,9.36,4.31,9.36,9.62-4.06,9.62-9.36,9.62Z"/>
  <path class="cls-1" d="M741.27,459.74h5.2v5.01c-1.66,2.25-4.35,3.76-7.45,3.76-5.35,0-9.4-4.31-9.4-9.62s4.06-9.62,9.4-9.62c2.58,0,4.72.81,6.53,2.43l1.77-2.03c-2.25-1.99-5.09-3.1-8.3-3.1-7.12,0-12.46,5.46-12.46,12.31s5.35,12.31,12.46,12.31c4.35,0,8.11-2.06,10.32-5.38v-8.59h-8.07v2.51Z"/>
  <rect class="cls-1" x="789.96" y="446.95" width="2.95" height="23.89"/>
  <path class="cls-1" d="M844.74,446.88l-11.21,23.96h3.02l2.21-4.65h14.64l2.21,4.65h2.99l-11.21-23.96h-2.65ZM852.34,463.8h-12.54l4.39-9.29c.85-1.77,1.73-4.02,1.88-4.31.15.29,1.07,2.58,1.88,4.31l4.39,9.29Z"/>
  <path class="cls-1" d="M283.13,323.48c-39.31-.14-71.33,31.79-71.33,71.07v13.18c0,5.14,2.65,10.04,7.17,12.49,4.15,2.25,9.05,2.21,13.18-.13l32.39-18.28c7.24-4.09,15.85-4.02,23.03.17,5.75,3.36,9.65,8.82,10.97,15.13.59,2.8,2.96,4.85,5.82,4.85,3.27,0,5.92-2.65,5.92-5.92v-65.14c0-15.04-12.12-27.36-27.16-27.42ZM299.05,396.52c-1.76-1.58-3.7-3-5.8-4.23-10.67-6.23-23.46-6.32-34.22-.25l-32.39,18.28c-1.05.59-1.96.24-2.4-.02-.45-.26-1.2-.88-1.2-2.08v-13.66c0-32.99,26.84-59.83,59.83-59.83,8.92,0,16.18,7.26,16.18,16.18v45.61Z"/>
  <path class="cls-1" d="M506.3,323.48c-39.31-.14-71.33,31.79-71.33,71.07v13.18c0,5.14,2.65,10.04,7.17,12.49,4.15,2.25,9.05,2.21,13.18-.13l32.39-18.28c7.24-4.09,15.85-4.02,23.03.17,5.75,3.36,9.65,8.82,10.97,15.13.59,2.8,2.96,4.85,5.82,4.85,3.27,0,5.92-2.65,5.92-5.92v-65.14c0-15.04-12.12-27.36-27.16-27.42ZM522.22,396.52c-1.76-1.58-3.7-3-5.8-4.23-10.67-6.23-23.46-6.32-34.22-.25l-32.39,18.28c-1.05.59-1.96.24-2.4-.02-.45-.26-1.2-.88-1.2-2.08v-13.66c0-32.99,26.84-59.83,59.83-59.83,8.92,0,16.18,7.26,16.18,16.18v45.61Z"/>
  <path class="cls-1" d="M416.25,421.96c3.1,0,5.62-2.52,5.62-5.62v-10.93c0-22.8-15.51-41.98-36.56-47.57,2.42-3.53,3.84-7.8,3.84-12.39,0-12.12-9.86-21.98-21.98-21.98h-16.37c-15.12,0-27.42,12.3-27.42,27.42v65.44c0,3.1,2.52,5.62,5.62,5.62h0c3.1,0,5.62-2.52,5.62-5.62v-48.91h38.03c20.98,0,37.98,17,37.98,37.98v10.93c0,3.1,2.52,5.62,5.62,5.62h0ZM334.62,356.2v-5.3c0-8.92,7.26-16.18,16.18-16.18h16.37c5.92,0,10.74,4.82,10.74,10.74s-4.82,10.74-10.74,10.74h-32.55Z"/>
  <path class="cls-1" d="M729.2,323.48h-43.65c-15.12,0-27.42,12.3-27.42,27.42v43.65c0,15.12,12.3,27.42,27.42,27.42,39.19,0,71.07-31.88,71.07-71.07,0-15.12-12.3-27.42-27.42-27.42ZM685.55,410.73c-8.92,0-16.18-7.26-16.18-16.18v-43.65c0-8.92,7.26-16.18,16.18-16.18h43.65c8.92,0,16.18,7.26,16.18,16.18,0,32.99-26.84,59.83-59.83,59.83Z"/>
  <path class="cls-1" d="M573.7,323.48c-15.04.06-27.16,12.38-27.16,27.42v65.44c0,3.1,2.52,5.62,5.62,5.62h0c3.1,0,5.62-2.52,5.62-5.62v-65.44c0-8.89,7.17-16.16,16.06-16.18,33.05-.07,59.95,26.8,59.95,59.83v21.8c0,3.1,2.52,5.62,5.62,5.62h0c3.1,0,5.62-2.52,5.62-5.62v-21.8c0-39.27-32.03-71.21-71.33-71.07Z"/>
  <path class="cls-1" d="M862.58,410.73h-21.8c-27.25,0-50.29-18.32-57.49-43.29h51.2c3.1,0,5.62-2.52,5.62-5.62s-2.52-5.62-5.62-5.62h-53.29c-.15-1.73-.25-3.49-.25-5.26,0-8.92,7.26-16.22,16.18-16.22h54.21c3.1,0,5.62-2.52,5.62-5.62h0c0-3.1-2.52-5.62-5.62-5.62h-54.21c-15.04,0-27.37,12.12-27.42,27.16-.14,39.31,31.79,71.33,71.07,71.33h21.8c3.1,0,5.62-2.52,5.62-5.62h0c0-3.1-2.52-5.62-5.62-5.62Z"/>
</svg>