<svg width="40" height="40" viewBox="0 0 40 40" fill="none" xmlns="http://www.w3.org/2000/svg">
<path d="M20 0C8.954 0 0 8.954 0 20c0 3.78 1.048 7.316 2.86 10.336L0 40l9.888-2.636A19.93 19.93 0 0020 40c11.046 0 20-8.954 20-20S31.046 0 20 0zm0 36.364a16.31 16.31 0 01-8.364-2.31l-.6-.356-5.872 1.564 1.576-5.728-.39-.624A16.244 16.244 0 013.636 20c0-9.028 7.336-16.364 16.364-16.364S36.364 10.972 36.364 20 29.028 36.364 20 36.364zm7.082-12.048c-.388-.196-2.296-1.132-2.652-1.262-.356-.13-.612-.196-.872.196-.26.392-.996 1.262-1.22 1.522-.224.26-.448.292-.836.096s-1.632-.602-3.108-1.918c-1.148-1.024-1.924-2.288-2.148-2.676-.224-.388-.024-.596.168-.788.172-.172.388-.448.58-.672.194-.224.26-.388.388-.648.13-.26.064-.488-.032-.684-.096-.196-.872-2.102-1.196-2.88-.316-.756-.636-.652-.872-.664-.224-.012-.48-.012-.736-.012s-.676.096-1.032.484c-.356.388-1.352 1.322-1.352 3.224 0 1.902 1.384 3.74 1.576 3.996.192.256 2.668 4.188 6.496 5.696.912.36 1.616.576 2.168.736.912.264 1.744.228 2.4.14.732-.1 2.296-.94 2.62-1.848.324-.908.324-1.688.228-1.848-.096-.164-.352-.26-.74-.456z" fill="white"/>
</svg>
